{"asset":{"version":"2.0","generator":"THREE.GLTFExporter"},"scenes":[{"name":"AuxScene","nodes":[4]}],"scene":0,"nodes":[{"name":"Plane005","extras":{"name":"Plane.005"},"mesh":1},{"name":"Vert001","extras":{"name":"Vert.001"},"mesh":2},{"name":"Plane001","extras":{"name":"Plane.001"},"mesh":3},{"name":"bench","extras":{"name":"bench"},"mesh":0,"children":[0,1,2]},{"name":"Scene","children":[3]}],"bufferViews":[{"buffer":0,"byteOffset":0,"byteLength":4992,"target":34962,"byteStride":12},{"buffer":0,"byteOffset":4992,"byteLength":4992,"target":34962,"byteStride":12},{"buffer":0,"byteOffset":9984,"byteLength":3328,"target":34962,"byteStride":8},{"buffer":0,"byteOffset":13312,"byteLength":8064,"target":34963},{"buffer":0,"byteOffset":21376,"byteLength":3912,"target":34962,"byteStride":12},{"buffer":0,"byteOffset":25288,"byteLength":3912,"target":34962,"byteStride":12},{"buffer":0,"byteOffset":29200,"byteLength":2608,"target":34962,"byteStride":8},{"buffer":0,"byteOffset":31808,"byteLength":4512,"target":34963},{"buffer":0,"byteOffset":36320,"byteLength":4212,"target":34962,"byteStride":12},{"buffer":0,"byteOffset":40532,"byteLength":4212,"target":34962,"byteStride":12},{"buffer":0,"byteOffset":44744,"byteLength":2808,"target":34962,"byteStride":8},{"buffer":0,"byteOffset":47552,"byteLength":7488,"target":34963},{"buffer":0,"byteOffset":55040,"byteLength":3756,"target":34962,"byteStride":12},{"buffer":0,"byteOffset":58796,"byteLength":3756,"target":34962,"byteStride":12},{"buffer":0,"byteOffset":62552,"byteLength":2504,"target":34962,"byteStride":8},{"buffer":0,"byteOffset":65056,"byteLength":4512,"target":34963}],"buffers":[{"byteLength":69568,"uri":"data:application/octet-stream;base64,"}],"accessors":[{"bufferView":0,"componentType":5126,"count":416,"max":[1.1265480518341064,0.7237449288368225,0.5891367197036743],"min":[-1.1265480518341064,-0.012611412443220615,-0.5885931253433228],"type":"VEC3"},{"bufferView":1,"componentType":5126,"count":416,"max":[1,1,0.9712523818016052],"min":[-1,-1,-0.9712523818016052],"type":"VEC3"},{"bufferView":2,"componentType":5126,"count":416,"max":[1,1],"min":[0,0],"type":"VEC2"},{"bufferView":3,"componentType":5125,"count":2016,"max":[415],"min":[0],"type":"SCALAR"},{"bufferView":4,"componentType":5126,"count":326,"max":[1.192461609840393,1.60042405128479,-0.40627655386924744],"min":[-1.1495281457901,0.8739152550697327,-0.7117534875869751],"type":"VEC3"},{"bufferView":5,"componentType":5126,"count":326,"max":[0.9989945888519287,0.9972984790802002,0.9972984790802002],"min":[-0.9989945888519287,-0.9972984194755554,-0.9972984790802002],"type":"VEC3"},{"bufferView":6,"componentType":5126,"count":326,"max":[0.9997815489768982,1],"min":[0.1268586367368698,-1.1920928955078125e-7],"type":"VEC2"},{"bufferView":7,"componentType":5125,"count":1128,"max":[325],"min":[0],"type":"SCALAR"},{"bufferView":8,"componentType":5126,"count":351,"max":[1.1265480518341064,1.5469955205917358,-0.22450214624404907],"min":[-1.1265480518341064,0.6169191598892212,-0.7847493290901184],"type":"VEC3"},{"bufferView":9,"componentType":5126,"count":351,"max":[1,1,0.9830149412155151],"min":[-1,-1,-0.9809350371360779],"type":"VEC3"},{"bufferView":10,"componentType":5126,"count":351,"max":[1,1],"min":[0,0],"type":"VEC2"},{"bufferView":11,"componentType":5125,"count":1872,"max":[350],"min":[0],"type":"SCALAR"},{"bufferView":12,"componentType":5126,"count":313,"max":[1.168413519859314,0.7910459041595459,0.40036535263061523],"min":[-1.1735762357711792,0.7304081320762634,-0.36046671867370605],"type":"VEC3"},{"bufferView":13,"componentType":5126,"count":313,"max":[0.9991331100463867,0.9991331100463867,0.9988721013069153],"min":[-0.9991331100463867,-0.9991331100463867,-0.9988721013069153],"type":"VEC3"},{"bufferView":14,"componentType":5126,"count":313,"max":[0.9997815489768982,1],"min":[0.1268586367368698,-1.1920928955078125e-7],"type":"VEC2"},{"bufferView":15,"componentType":5125,"count":1128,"max":[312],"min":[0],"type":"SCALAR"}],"materials":[{"pbrMetallicRoughness":{"metallicFactor":1,"roughnessFactor":0.6555556058883667},"alphaMode":"BLEND","name":"metal.004"},{"pbrMetallicRoughness":{"baseColorFactor":[0.4549019607843137,0.03529411764705882,0.03529411764705882,1],"metallicFactor":0,"roughnessFactor":0.5},"alphaMode":"BLEND","name":"wood.003"},{"pbrMetallicRoughness":{"metallicFactor":1,"roughnessFactor":0.6555556058883667},"alphaMode":"BLEND","name":"metal.003"},{"pbrMetallicRoughness":{"baseColorFactor":[0.4549019607843137,0.03529411764705882,0.03529411764705882,1],"metallicFactor":0,"roughnessFactor":0.5},"alphaMode":"BLEND","name":"wood.004"}],"meshes":[{"primitives":[{"mode":4,"attributes":{"POSITION":0,"NORMAL":1,"TEXCOORD_0":2},"indices":3,"material":0}]},{"primitives":[{"mode":4,"attributes":{"POSITION":4,"NORMAL":5,"TEXCOORD_0":6},"indices":7,"material":1}]},{"primitives":[{"mode":4,"attributes":{"POSITION":8,"NORMAL":9,"TEXCOORD_0":10},"indices":11,"material":2}]},{"primitives":[{"mode":4,"attributes":{"POSITION":12,"NORMAL":13,"TEXCOORD_0":14},"indices":15,"material":3}]}]}